# xmcd
#
# Track frame offsets:
#	150
#	16083
#	32334
#	51059
#	65890
#	82304
#	96024
#	110625
#	127324
#	141189
#	159763
#	176796
#	195292
#	207373
#	222852
#	236736
#	267576
#
# Disc length: 3582 seconds
#
# Revision: 1
# Processed by: cddbd v1.5.2PL0 Copyright (c) Steve Scherf et al.
# Submitted via: audiograbber 1.83.01
#
DISCID=f90dfc11
DTITLE=Chartbustes - Country 500 Vol.1 d.18 8532-18
DYEAR=1900
DGENRE=karaoke
TTITLE0=Brooks and Dunn - Boot scootin boogie
TTITLE1=Billy Ray Cyrus - Achy Breaky Heart
TTITLE2=Trisha Yearwood - She's in love with the boy
TTITLE3=Billy Dean - Billy the Kid
TTITLE4=Doug Stone - A Jukebox with a Country Song
TTITLE5=Lorrie Morgan - Except for Monday
TTITLE6=Mark Chesnutt - Bubba Shot the Jukebox
TTITLE7=Mary Chapen Carpenter - I feel lucky
TTITLE8=Sammy Kershaw - Cadillac style
TTITLE9=Michelle Wright - Take it like a man
TTITLE10=Tracy Lawrence - Sticks and stones
TTITLE11=Pam Tillis - Maybe It Was Memphis
TTITLE12=Alan Jackson - Chattahoochee
TTITLE13=Pam Tillis - Shake the Sugar Tree
TTITLE14=Brooks and Dunn - Hard Workin' Man
TTITLE15=Tanya Tucker - Two Sparrows in a Hurricane
TTITLE16=Data - Track
EXTD=
EXTT0=
EXTT1=
EXTT2=
EXTT3=
EXTT4=
EXTT5=
EXTT6=
EXTT7=
EXTT8=
EXTT9=
EXTT10=
EXTT11=
EXTT12=
EXTT13=
EXTT14=
EXTT15=
EXTT16=
PLAYORDER=
